<?xml version="1.0" encoding="UTF-8" standalone="no"?>
<!-- Created with Inkscape (http://www.inkscape.org/) -->

<svg
   version="1.1"
   id="svg1"
   width="1493.6154"
   height="1706.8248"
   viewBox="0 0 1493.6154 1706.8248"
   sodipodi:docname="333f.svg"
   inkscape:version="1.3.2 (091e20ef0f, 2023-11-25)"
   xmlns:inkscape="http://www.inkscape.org/namespaces/inkscape"
   xmlns:sodipodi="http://sodipodi.sourceforge.net/DTD/sodipodi-0.dtd"
   xmlns="http://www.w3.org/2000/svg"
   xmlns:svg="http://www.w3.org/2000/svg">
  <defs
     id="defs1" />
  <sodipodi:namedview
     id="namedview1"
     pagecolor="#ffffff"
     bordercolor="#000000"
     borderopacity="0.25"
     inkscape:showpageshadow="2"
     inkscape:pageopacity="0.0"
     inkscape:pagecheckerboard="0"
     inkscape:deskcolor="#d1d1d1"
     showgrid="false"
     inkscape:zoom="0.47167967"
     inkscape:cx="757.92963"
     inkscape:cy="853.33336"
     inkscape:window-width="1920"
     inkscape:window-height="1011"
     inkscape:window-x="0"
     inkscape:window-y="0"
     inkscape:window-maximized="1"
     inkscape:current-layer="layer1" />
  <g
     inkscape:groupmode="layer"
     id="layer1"
     inkscape:label="Layer 1"
     transform="translate(-0.94701164,-0.0913201)"
     style="display:inline">
    <path
       id="path2"
       style="display:inline;fill:#ff0000"
       d="m 1143.2634,0.24559933 c -1.7948,-0.23204282 -3.2637,-0.19688857 -3.2637,0.078125 0,0.27501356 1.8533,5.56354977 4.1172,11.75390567 6.0239,16.471865 12.696,43.615934 16.0899,65.449219 2.5592,16.464396 2.9858,24.639131 3.0508,58.472651 0.079,41.20609 -0.7679,52.16258 -6.6973,86.66797 -21.2868,123.87635 -89.0877,241.66797 -183.4668,318.74219 -13.91733,11.36552 -14.6074,11.74621 -26.68946,14.64062 -6.82184,1.63426 -18.40496,3.25652 -25.73828,3.60547 -17.26049,0.82131 -17.71815,0.45586 -30.28515,-24.05468 -13.87458,-27.0608 -29.04553,-51.80576 -44.16602,-72.04297 l -13.11719,-17.5586 16.45117,-0.81836 c 16.36236,-0.81481 34.62644,-4.43405 45.33008,-8.98046 l 5.1836,-2.20118 -16.36329,-0.20117 c -34.37588,-0.4234 -45.48674,-5.86463 -104.09375,-50.97656 -7.91713,-6.09411 -19.49542,-14.28205 -25.72851,-18.19531 l -11.33203,-7.11524 6.00976,-2.6582 c 23.44011,-10.36868 45.46943,-31.85361 58.39453,-56.95117 6.42818,-12.48204 17.50572,-45.90235 15.21485,-45.90235 -0.30419,0 -2.46673,2.98444 -4.80664,6.63086 -13.75926,21.44194 -46.82082,40.80673 -82.02344,48.04297 -15.89151,3.26667 -32.66797,4.75405 -32.66797,2.89649 0,-0.77566 3.02846,-5.36002 6.72852,-10.1875 16.55564,-21.60019 28.29259,-56.70984 31.96093,-95.60938 0.76762,-8.13963 1.13855,-15.05676 0.82422,-15.37109 -0.31434,-0.31433 -1.91659,3.51682 -3.56054,8.51367 -6.36212,19.33776 -16.76158,35.77916 -32.72657,51.74414 -19.71518,19.71518 -42.15402,32.63009 -89.22656,51.35352 -45.01853,17.90643 -55.44044,23.29117 -68.51562,35.39648 -14.68051,13.59156 -20.81013,26.57206 -23.08203,48.88672 l -1.48438,14.57226 -9.45898,7.01172 c -12.4542,9.23178 -18.86131,16.54514 -23.86524,27.23828 -3.63833,7.77496 -4.17055,10.46837 -4.63867,23.49805 -0.41063,11.4296 0.0828,17.47533 2.20508,27.07031 3.76902,17.04038 4.74762,18.40083 6.8457,9.49805 2.25427,-9.56548 6.76875,-18.23805 12.20899,-23.45312 12.6087,-12.08685 51.83473,-21.67691 81.78515,-19.99415 31.62105,1.77664 56.15701,14.7301 66.08008,34.88672 11.08322,22.51322 6.65434,49.80149 -15.74805,97.04297 l -7.42773,15.66602 h -7.17578 c -15.53745,0 -39.46417,-6.89698 -61.06055,-17.60156 -35.60791,-17.64965 -91.57261,-62.2838 -118.86328,-94.79883 -23.47221,-27.9656 -35.03715,-49.97958 -50.92969,-96.9336 -5.83296,-17.23332 -17.26331,-47.98048 -25.40039,-68.32812 -26.5821,-66.4713 -34.3268,-99.79925 -35.70508,-153.67188 -1.29856,-50.75666 6.00422,-96.012132 24.1875,-149.898432 2.57951,-7.6443898 4.48128,-14.106616 4.22657,-14.3613281 -0.88575,-0.88574346 -22.91501,19.1872621 -33.31446,30.3554681 -43.62824,46.85339 -84.34646,116.193052 -96.74414,164.750002 -2.31828,9.07977 -5.24028,36.59203 -5.5039,51.82226 -0.0663,3.82969 -0.59335,3.45265 -12.40821,-8.84179 -25.68466,-26.72726 -42.45809,-58.86275 -52.82617,-101.20704 -2.07133,-8.4595 -4.51604,-20.02346 -5.43164,-25.69921 -0.9156,-5.67576 -1.89866,-10.08572 -2.18555,-9.79883 -1.47112,1.47113 -8.89075,30.37551 -11.6914,45.54687 -17.18039,93.06756 2.57065,181.53429 54.28515,243.15039 10.70844,12.75876 11.0016,12.68814 -11.97851,2.92578 C 130.86371,372.57378 85.147426,333.57724 50.814199,281.94286 37.931125,262.56776 30.988454,249.75808 22.657949,229.9995 c -3.091837,-7.33332 -5.938408,-13.63333 -6.324219,-14 -1.752134,-1.66519 1.258095,42.88137 4.234375,62.66797 14.20366,94.42731 46.354987,178.69661 86.365235,226.36914 17.61495,20.98836 44.24936,41.59159 69.41016,53.69141 15.37602,7.39433 14.9429,8.01745 -2.34375,3.37891 C 131.63817,550.74001 97.819717,535.1859 65.050527,511.9995 50.042668,501.38044 24.589926,477.08767 13.155996,462.47021 -1.2196875,444.0919 -0.22104321,444.78107 2.8141991,455.33349 21.665175,520.87135 46.044997,569.82578 84.818105,619.9995 c 14.417814,18.65714 45.523845,50.14255 64.515625,65.30078 45.32305,36.17447 108.04944,67.84365 148,74.72266 15.3948,2.6508 15.56308,2.70199 13.125,4.06641 -4.78382,2.67716 -30.3312,7.89473 -45.76367,9.3457 -43.92764,4.13012 -94.48864,-9.15937 -130.36133,-34.26367 -5.68332,-3.9773 -10.33398,-6.84474 -10.33398,-6.3711 0,1.86565 12.63051,21.52119 20.39453,31.73633 23.17311,30.48889 60.80796,59.13765 100.93945,76.8418 55.59361,24.52531 113.50892,36.22235 159.66602,32.24609 21.55607,-1.85697 38.0095,-5.18056 56.74804,-11.46093 7.47258,-2.50449 13.81341,-4.33748 14.0918,-4.07422 1.11552,1.05488 -18.46777,20.10468 -27.95313,27.1914 -26.97975,20.15719 -66.31621,33.64695 -109.32812,37.49219 -14.96803,1.33814 -29.60343,1.09922 -54.55859,-0.88672 l -8.66602,-0.68945 4,2.29883 c 14.18305,8.15274 47.11442,19.8605 70.82227,25.17773 44.53928,9.98935 87.30017,10.89446 127.74609,2.70508 37.56663,-7.60638 63.80267,-20.83934 85.78906,-43.27148 l 11.02539,-11.24805 -2.07617,5.9043 c -14.74204,41.95419 -51.07335,71.27637 -105.75586,85.35351 -6.35293,1.63546 -12.03857,3.39595 -12.63476,3.91211 -2.12367,1.8386 25.41239,4.55256 45.08398,4.44336 45.80265,-0.25425 83.05743,-13.71821 111.85547,-40.42383 8.25584,-7.65599 23.71806,-26.06948 26.64648,-31.73242 1.22761,-2.37394 2.66805,-4.2991 3.19922,-4.2793 0.53117,0.0198 3.26906,2.17678 6.08399,4.79297 l 5.11718,4.75586 -2.99804,12.20703 c -5.41688,22.05831 -25.40844,57.25385 -37.96094,66.82813 -5.64234,4.3036 -6.85945,4.356 -32.61133,1.4258 -20.72634,-2.3583 -24.55801,-3.155 -39.94531,-8.3047 -13.02237,-4.35829 -17.45022,-3.21465 -25.91992,6.6992 -3.31149,3.8762 -7.39721,7.7206 -9.07813,8.543 -1.68093,0.8225 -7.04006,3.3372 -11.91015,5.5879 -12.02995,5.5595 -13.42222,8.9153 -14.13868,34.0957 -0.29212,10.2667 -0.027,20.9858 0.58789,23.8223 l 1.11719,5.1582 3.75,-9.5996 c 4.19232,-10.7334 11.07684,-23.0445 16.47266,-29.4571 l 3.57617,-4.25 11.00977,0.8926 11.00976,0.8945 1.41406,-5.2519 c 0.85732,-3.1839 2.80693,-6.1661 4.95313,-7.5723 3.32304,-2.1773 3.9679,-2.1852 10.50976,-0.123 11.27664,3.5546 11.45199,4.8029 1.97461,14.1054 -5.9078,5.7987 -9.20317,8.0506 -11.79101,8.0606 -5.37066,0.02 -16.56039,5.7092 -20.54883,10.4492 -5.2109,6.1928 -6.8398,16.4075 -5.98828,37.5371 0.94671,23.4912 7.01403,46.0138 14.90625,55.334 l 2.25781,2.666 -0.92578,-2.666 c -0.50893,-1.4666 -1.23565,-11.0779 -1.61523,-21.3574 -0.59594,-16.1387 -0.30446,-20.2156 2.13671,-29.8692 1.5549,-6.1488 3.8834,-13.3381 5.17383,-15.9765 2.11708,-4.3287 3.11672,-4.9504 10.2461,-6.3575 11.29957,-2.2302 14.09961,-3.7669 14.09961,-7.7441 0,-4.7339 4.3189,-8.573 22.33398,-19.8496 l 5.66602,-3.5469 v 10.0508 10.0508 l -8.16211,8.7734 c -7.99913,8.5985 -8.14533,8.8918 -7.34961,14.6973 1.01897,7.4342 6.51453,21.2812 12.49218,31.4805 4.73736,8.083 19.54995,24.863 20.83399,23.5996 0.4,-0.3935 -0.72785,-4.7291 -2.50781,-9.6328 -4.40936,-12.1476 -5.93243,-22.7999 -5.00782,-35.0254 l 0.77735,-10.2813 7.61523,-5.9141 c 8.90396,-6.9145 10.63541,-10.0793 10.66211,-19.4941 0.0229,-8.0655 1.85469,-12.2644 7.02539,-16.1035 l 3.71094,-2.7539 12.28906,3.2656 c 14.43411,3.8371 25.94657,4.0356 37.95117,0.6524 9.55491,-2.6928 15.64659,-2.1341 22.4336,2.0605 7.43727,4.5965 10.2588,11.6582 9.6875,24.2383 l -0.47852,10.5527 3.02344,-3.7578 c 5.57357,-6.9268 8.69277,-17.49 7.86719,-26.6426 -1.8207,-20.1849 -16.28394,-35.539 -35.22657,-37.3965 -10.35108,-1.015 -12.30273,-2.2136 -12.30273,-7.5527 0,-12.9236 11.63968,-41.46071 21.7793,-53.3965 l 4.4414,-5.23047 20.35352,12.98047 c 11.19377,7.13908 26.24127,17.29185 33.43945,22.5625 7.19818,5.27067 18.27051,12.8626 24.60547,16.8692 l 11.51953,7.2832 -0.83398,5.3828 c -5.98624,38.6486 -34.177,87.6777 -50.39063,87.6387 -6.89069,-0.016 -42.45544,-4.2913 -48.24804,-5.7989 -2.93333,-0.7634 -9.80848,-2.8858 -15.2793,-4.7168 -13.02237,-4.3582 -17.45022,-3.2127 -25.91992,6.7012 -3.31149,3.8761 -7.39721,7.7205 -9.07813,8.543 -1.68093,0.8225 -7.04006,3.3373 -11.91015,5.5879 -12.02995,5.5595 -13.42222,8.9133 -14.13868,34.0937 -0.29212,10.2667 -0.0271,20.9877 0.58789,23.8242 l 1.11719,5.1563 3.75,-9.5996 c 4.19232,-10.7334 11.07684,-23.0445 16.47266,-29.4571 l 3.57617,-4.25 11.00977,0.8946 11.00976,0.8925 1.41406,-5.2519 c 0.85732,-3.1839 2.80693,-6.1661 4.95313,-7.5723 3.32304,-2.1774 3.9679,-2.1832 10.50976,-0.1211 11.27664,3.5547 11.45199,4.8012 1.97461,14.1035 -5.9078,5.7988 -9.20317,8.0506 -11.79101,8.0606 -5.37066,0.019 -16.56039,5.7092 -20.54883,10.4492 -5.2109,6.1928 -6.8398,16.4075 -5.98828,37.5371 0.94671,23.4912 7.01403,46.0137 14.90625,55.334 l 2.25781,2.666 -0.92578,-2.666 c -0.50893,-1.4667 -1.23565,-11.0779 -1.61523,-21.3574 -0.59594,-16.1387 -0.30446,-20.2156 2.13671,-29.8692 1.5549,-6.1487 3.8834,-13.338 5.17383,-15.9765 2.11708,-4.3286 3.11672,-4.9484 10.2461,-6.3555 11.29957,-2.2303 14.09961,-3.7688 14.09961,-7.7461 0,-4.7338 4.3189,-8.571 22.33398,-19.8476 l 5.66602,-3.5489 v 10.0508 10.0508 l -8.16211,8.7734 c -7.99913,8.5985 -8.14533,8.8918 -7.34961,14.6973 1.01897,7.4341 6.51453,21.2831 12.49218,31.4824 4.73736,8.083 19.54995,24.861 20.83399,23.5977 0.4,-0.3935 -0.72785,-4.7271 -2.50781,-9.6309 -4.40936,-12.1476 -5.93243,-22.7998 -5.00782,-35.0254 l 0.77735,-10.2832 7.61523,-5.9121 c 8.90396,-6.9146 10.63541,-10.0813 10.66211,-19.4961 0.0229,-8.0655 1.85469,-12.2624 7.02539,-16.1015 l 3.71094,-2.7559 12.28906,3.2676 c 14.43411,3.8371 25.94657,4.0335 37.95117,0.6504 19.062,-5.3721 32.33594,4.1567 32.33594,23.2129 0,7.6039 -0.31084,8.3586 -6.54492,15.8496 -17.66816,21.2304 -43.63017,41.0714 -72.78711,55.625 -24.17371,12.0664 -36.95093,16.8345 -87.47461,32.6465 -43.53372,13.6242 -60.57755,20.015 -77.19336,28.9433 -50.26369,27.0084 -84.38954,67.6493 -95.60351,113.8535 -3.04831,12.5598 -3.11058,51.2213 -0.13672,85.2051 1.89649,21.6721 2.44057,24.3775 7.62304,38 9.07709,23.8597 25.64402,59.3446 32.10547,68.7656 9.7233,14.1769 22.72978,23.9004 31.96875,23.9004 h 4.0625 l -8.63086,-11.3105 c -11.28328,-14.7881 -12.50344,-17.3497 -14.29492,-30.0176 -1.8152,-12.8357 -0.14413,-27.3274 4.78125,-41.4902 3.1562,-9.0757 13.5561,-27.0412 20.36719,-35.1817 l 3.34766,-4 -0.875,4 c -1.82518,8.3563 -2.3756,51.182 -0.80079,62.2637 5.86273,41.2548 23.59686,79.0782 48.87696,104.2461 7.60746,7.5737 21.4888,17.6557 22.67578,16.4687 0.31841,-0.3184 -1.49363,-4.0208 -4.02735,-8.2285 -6.74047,-11.1936 -10.15441,-22.3875 -11.03125,-36.164 -2.13358,-33.5223 12.52445,-65.8639 44.11719,-97.3418 24.76985,-24.6799 46.78887,-37.5792 103.47461,-60.6153 16.49999,-6.7053 35.06538,-14.5547 41.25586,-17.4433 6.19047,-2.8886 10.99179,-5.0073 10.66797,-4.709 -0.32382,0.2982 -5.29341,4.2623 -11.04297,8.8105 -34.18694,27.0432 -56.86962,62.3359 -63.62305,98.9961 -1.99667,10.8387 -1.97667,32.6771 0.0391,43.7168 1.58307,8.67 11.27639,35.3729 13.29297,36.6192 0.58827,0.3636 1.77319,-4.878 2.63476,-11.6465 2.87114,-22.5556 8.05244,-37.254 18.5,-52.4883 13.1145,-19.1231 24.62084,-29.0523 66.27539,-57.1855 13.93332,-9.4105 28.45866,-19.4013 32.27735,-22.2032 3.81867,-2.8019 7.27641,-5.0957 7.68359,-5.0957 0.40718,0 -0.84635,2.5514 -2.78516,5.668 -4.84209,7.7838 -19.19963,22.6498 -30.96289,32.0605 -45.15589,36.1249 -68.88634,85.1118 -64.07422,132.2676 0.67325,6.5974 1.55865,13.0461 1.9668,14.332 v 0.01 c 1.09381,3.4415 17.63496,3.4458 18.69922,0 7.81331,-25.2972 22.53391,-46.0671 45.00195,-63.498 5.97376,-4.6346 22.26004,-16.1094 36.19336,-25.5 74.9363,-50.5045 108.18351,-82.6067 130.70111,-126.2051 3.3509,-6.4878 6.5952,-11.7969 7.211,-11.7969 1.999,0 26.726,-24.1738 34.6601,-33.8848 21.3096,-26.0822 36.5265,-58.1016 44.2051,-93.0136 3.5498,-16.1398 4.9354,-53.376 2.6348,-70.8125 -5.5871,-42.3447 -22.7819,-84.3036 -48.75,-118.9551 -12.4476,-16.6097 -37.2904,-41.3783 -69.32812,-69.1211 -62.96992,-54.5281 -97.74682,-94.66801 -126.64844,-146.17776 -7.021,-12.51314 -20.68555,-41.2838 -20.68555,-43.55468 0,-0.48842 3.30191,4.36946 7.33594,10.79492 23.03394,36.68879 51.48726,60.01893 83.78906,68.69922 20.38567,5.47813 55.6681,6.61368 96.83591,3.11718 l 9.9609,-0.8457 -14.6269,-3.62109 c -27.4726,-6.79787 -47.79427,-16.67235 -67.51756,-32.8086 -17.94816,-14.68394 -35.77344,-37.37308 -42.80079,-54.48242 -6.66392,-16.22451 -6.10281,-16.38538 8.00196,-2.28906 14.89111,14.88219 27.21634,23.73419 46.61523,33.48242 34.52926,17.3515 73.76876,25.33672 116.40626,23.6875 39.5257,-1.52886 70.741,-9.10914 113.8711,-27.65234 6.5287,-2.80701 12.5294,-5.8196 13.3339,-6.69531 1.1081,-1.20627 0.8342,-1.36962 -1.1308,-0.67188 -5.3011,1.88232 -45.4483,2.48418 -60.0742,0.90039 -52.5829,-5.69397 -93.0454,-23.24968 -138.5137,-60.0957 -7.692,-6.23333 -14.0224,-11.73095 -14.0684,-12.2168 -0.046,-0.48584 4.5667,0.9087 10.25,3.09961 55.2675,21.30552 117.7956,24.77707 176.418,9.79297 72.7155,-18.58636 132.3232,-59.26393 170.5176,-116.36524 4.4354,-6.63092 8.0644,-12.4277 8.0644,-12.88085 0,-0.45315 -4.7539,2.50792 -10.5625,6.57812 -18.3623,12.86684 -42.9748,22.88846 -70.7715,28.81836 -20.0431,4.27588 -58.5556,4.31747 -78,0.084 -16.6613,-3.62753 -33.9869,-9.15642 -31.3339,-10 1.1,-0.34978 6.5,-1.37277 12,-2.27343 15.2547,-2.49808 40.5984,-9.78309 58.1836,-16.72461 108.7435,-42.92523 200.3661,-146.88911 237.2871,-269.2461 l 4.4257,-14.66601 -6.1523,7.33398 c -11.249,13.40673 -31.7049,32.55591 -44.1504,41.33203 -32.162,22.67934 -69.9539,41.21955 -110.9258,54.41797 -30.7413,9.90285 -44.4996,12.46176 -27.0488,5.03125 39.8571,-16.97106 76.2646,-46.82846 101.4707,-83.21679 36.5599,-52.77891 67.8051,-154.58857 73.5234,-239.56446 2.3057,-34.26477 2.0082,-35.43925 -4.5683,-18 -14.6308,38.79709 -38.7448,76.28235 -69.3653,107.82813 -29.6905,30.58781 -56.3463,49.32504 -104.3281,73.33789 -10.4403,5.22488 -19.3234,9.5 -19.7402,9.5 -0.4168,0 4.2831,-5.85001 10.4433,-13 37.1721,-43.14394 55.1981,-80.5048 64.17,-133 7.8997,-46.22156 4.4303,-101.2858 -9.4922,-150.66602 -1.8608,-6.59999 -3.8703,-12.899997 -4.4668,-13.999996 -1.3454,-2.481038 -0.9659,-3.712652 -6.5762,21.296876 -10.5635,47.09018 -28.5971,84.55356 -55.5332,115.36914 l -10.4883,12 -0.8535,-19.33399 c -0.9478,-21.48812 -2.7795,-31.36997 -9.9336,-53.57422 -13.4131,-41.6307 -37.13,-85.207577 -65.6855,-120.693353 C 1181.405,33.010248 1147.8625,0.84020508 1143.2634,0.24559933 Z M 821.64623,1055.3335 c 2.03498,0 23.33974,25.4904 28.70898,34.3496 8.1929,13.5182 8.82578,36.9068 1.58399,58.5567 -1.55044,4.6351 -4.47957,11.3219 -6.50977,14.8613 l -3.6914,6.4355 -0.8086,-8.6523 c -1.93065,-20.675 -16.18813,-35.9587 -35.29297,-37.832 -10.35108,-1.015 -12.30273,-2.2137 -12.30273,-7.5528 0,-7.5935 4.92487,-24.084 10.45508,-35.0058 5.86137,-11.5759 15.50263,-25.1602 17.85742,-25.1602 z" />
    <path
       style="fill:#000000"
       d="m 796.77095,1704.3286 c -0.40815,-1.2859 -1.29292,-7.7359 -1.96617,-14.3333 -4.81213,-47.1559 18.91886,-96.1432 64.0748,-132.2681 11.76327,-9.4107 26.12,-24.2767 30.9621,-32.0605 1.93881,-3.1166 3.19196,-5.6666 2.78478,-5.6666 -0.40718,0 -3.86471,2.2924 -7.68339,5.0943 -3.81869,2.8019 -18.34307,12.7939 -32.2764,22.2044 -41.65459,28.1333 -53.16156,38.0619 -66.27607,57.185 -10.44757,15.2343 -15.62825,29.9337 -18.49939,52.4893 -0.86157,6.7685 -2.04782,12.0089 -2.6361,11.6453 -2.01658,-1.2463 -11.70947,-27.9483 -13.29254,-36.6183 -2.01574,-11.0397 -2.03478,-32.878 -0.0381,-43.7167 6.75343,-36.6603 29.43481,-71.9526 63.62179,-98.9958 5.74956,-4.5482 10.71869,-8.5134 11.04251,-8.8116 0.32382,-0.2983 -4.47618,1.8211 -10.66666,4.7097 -6.19049,2.8886 -24.75543,10.7382 -41.25543,17.4435 -56.6858,23.0361 -78.7062,35.9354 -103.47607,60.6153 -31.59277,31.478 -46.25029,63.8191 -44.1167,97.3414 0.87684,13.7766 4.29114,24.9691 11.03162,36.1627 2.53372,4.2077 4.34624,7.9108 4.02783,8.2292 -1.18698,1.187 -15.06987,-8.895 -22.67734,-16.4687 -25.28012,-25.1679 -43.01414,-62.9916 -48.87687,-104.2464 -1.57482,-11.0817 -1.02323,-53.9063 0.80195,-62.2626 l 0.87367,-4 -3.34676,4 c -6.8111,8.1405 -17.21193,26.1055 -20.36813,35.1812 -4.92539,14.1629 -6.59475,28.6542 -4.77955,41.4899 1.79148,12.6679 3.0117,15.2302 14.29499,30.0183 l 8.62991,11.3106 h -4.06239 c -9.23898,0 -22.24508,-9.7238 -31.96839,-23.9007 -6.46146,-9.421 -23.02932,-44.9063 -32.10641,-68.766 -5.18248,-13.6225 -5.7251,-16.3279 -7.62159,-38 -2.97386,-33.9838 -2.91202,-72.6459 0.13629,-85.2057 11.21399,-46.2043 45.3402,-86.8446 95.60394,-113.853 16.61582,-8.9283 33.65791,-15.3181 77.19167,-28.9424 50.52373,-15.812 63.30126,-20.5807 87.47499,-32.6471 29.15697,-14.5536 55.1196,-34.3945 72.78778,-55.625 6.23409,-7.491 6.54556,-8.2452 6.54556,-15.8491 0,-19.0562 -13.27414,-28.5852 -32.33615,-23.2131 -12.00462,3.3831 -23.51858,3.1855 -37.9527,-0.6516 l -12.28884,-3.2668 -3.71116,2.7554 c -5.17071,3.8391 -7.00198,8.0368 -7.02483,16.1023 -0.0267,9.4148 -1.75813,12.5807 -10.6621,19.4953 l -7.61508,5.9136 -0.7776,10.2817 c -0.92462,12.2256 0.59831,22.8775 5.00767,35.0251 1.77997,4.9038 2.90904,9.238 2.50904,9.6315 -1.28404,1.2633 -16.09822,-15.515 -20.83558,-23.598 -5.97766,-10.1993 -11.4724,-24.0477 -12.49137,-31.4818 -0.79572,-5.8055 -0.64908,-6.0987 7.35005,-14.6972 L 708,1170.734 v -10.0504 -10.0503 l -5.66667,3.5471 C 684.31823,1165.457 680,1169.2948 680,1174.0286 c 0,3.9773 -2.79938,5.5151 -14.09896,7.7454 -7.12938,1.4071 -8.13019,2.0279 -10.24727,6.3565 -1.29043,2.6385 -3.61842,9.828 -5.17332,15.9768 -2.44118,9.6536 -2.73287,13.7308 -2.13693,29.8695 0.37958,10.2795 1.10656,19.8899 1.61549,21.3566 l 0.92535,2.6667 -2.25809,-2.6667 c -7.89223,-9.3203 -13.95928,-31.8421 -14.90599,-55.3333 -0.85152,-21.1296 0.77829,-31.3444 5.9892,-37.5372 3.98844,-4.74 15.17796,-10.4303 20.54862,-10.4498 2.58784,-0.01 5.8826,-2.2619 11.79041,-8.0607 9.47739,-9.3024 9.30286,-10.5495 -1.97379,-14.1042 -6.54187,-2.0621 -7.18684,-2.0546 -10.50988,0.1228 -2.1462,1.4062 -4.09721,4.3878 -4.95453,7.5717 l -1.41422,5.252 -11.00934,-0.8933 -11.00933,-0.8933 -3.57581,4.2496 c -5.39582,6.4126 -12.27987,18.723 -16.47219,29.4564 l -3.74986,9.6006 -1.1181,-5.1573 c -0.61495,-2.8365 -0.87909,-13.5573 -0.58697,-23.824 0.71646,-25.1804 2.10748,-28.5351 14.13744,-34.0946 4.8701,-2.2506 10.23004,-4.765 11.91097,-5.5875 1.68092,-0.8225 5.76562,-4.6668 9.07711,-8.5429 8.46971,-9.9139 12.89731,-11.0584 25.91969,-6.7002 5.47083,1.831 12.34697,3.9537 15.2803,4.7171 5.79261,1.5076 41.35679,5.7814 48.24749,5.7979 16.21364,0.039 44.4042,-48.9898 50.39044,-87.6385 l 0.83361,-5.382 -11.51814,-7.2846 c -6.33497,-4.0066 -17.40755,-11.59708 -24.60573,-16.86775 -7.19819,-5.27066 -22.24616,-15.42409 -33.43994,-22.56317 l -20.35234,-12.98014 -4.44282,5.22984 c -10.13963,11.9358 -21.77924,40.47262 -21.77924,53.39622 0,5.3391 1.95249,6.5376 12.30359,7.5526 18.94264,1.8575 33.4055,17.2112 35.2262,37.3961 0.82558,9.1526 -2.2937,19.7162 -7.86728,26.643 l -3.02391,3.7581 0.47922,-10.5528 c 0.5713,-12.5801 -2.25108,-19.6408 -9.68836,-24.2373 -6.78701,-4.1946 -12.87735,-4.7543 -22.43227,-2.0615 -12.00462,3.3832 -23.51858,3.1855 -37.9527,-0.6516 l -12.28884,-3.2668 -3.71116,2.7555 c -5.17071,3.8391 -7.00198,8.0367 -7.02483,16.1022 -0.0267,9.4148 -1.75813,12.5807 -10.6621,19.4953 l -7.61508,5.9136 -0.7776,10.2817 c -0.92462,12.2256 0.59831,22.8775 5.00767,35.0251 1.77997,4.9038 2.90904,9.238 2.50904,9.6315 -1.28404,1.2634 -16.09822,-15.5149 -20.83558,-23.598 -5.97766,-10.1993 -11.4724,-24.0476 -12.49137,-31.4818 -0.79572,-5.8055 -0.64908,-6.0987 7.35005,-14.6972 L 580,1072.0673 v -10.0503 -10.0504 l -5.66667,3.5471 C 556.31823,1066.7903 552,1070.6281 552,1075.362 c 0,3.9772 -2.79938,5.5151 -14.09896,7.7453 -7.12938,1.4071 -8.13019,2.0279 -10.24727,6.3566 -1.29043,2.6384 -3.61842,9.8279 -5.17332,15.9767 -2.44118,9.6536 -2.73287,13.7308 -2.13693,29.8695 0.37958,10.2795 1.10656,19.89 1.61549,21.3566 l 0.92535,2.6667 -2.25809,-2.6667 c -7.89223,-9.3202 -13.95928,-31.8421 -14.90599,-55.3333 -0.85152,-21.1296 0.77829,-31.3444 5.9892,-37.5372 3.98844,-4.74 15.17796,-10.4303 20.54862,-10.4498 2.58784,-0.01 5.8826,-2.2619 11.79041,-8.0606 9.47739,-9.3025 9.30286,-10.5496 -1.97379,-14.1042 -6.54187,-2.0622 -7.18684,-2.0546 -10.50988,0.1227 -2.1462,1.4062 -4.09721,4.3878 -4.95453,7.5717 l -1.41422,5.252 -11.00934,-0.8933 -11.00933,-0.8933 -3.57581,4.2496 c -5.39582,6.4126 -12.27987,18.723 -16.47219,29.4564 l -3.74986,9.6006 -1.1181,-5.1573 c -0.61495,-2.8365 -0.87909,-13.5573 -0.58697,-23.824 0.71646,-25.1804 2.10748,-28.535 14.13744,-34.0945 4.8701,-2.2507 10.23004,-4.7651 11.91097,-5.5876 1.68092,-0.8224 5.76562,-4.6667 9.07711,-8.5429 8.46971,-9.91387 12.89731,-11.05839 25.91969,-6.7001 15.38732,5.1497 19.22061,5.9466 39.94697,8.3049 25.7519,2.9302 26.96721,2.877 32.60956,-1.4266 12.55251,-9.57429 32.54526,-44.76873 37.96214,-66.82706 l 2.99773,-12.20721 -5.11805,-4.75672 c -2.81493,-2.61619 -5.55264,-4.77295 -6.08381,-4.79279 -0.53117,-0.0198 -1.97017,1.90624 -3.19778,4.28018 -2.92843,5.66295 -18.39099,24.07675 -26.64684,31.73275 -28.79807,26.70565 -66.05359,40.16939 -111.85629,40.42364 -19.67161,0.1092 -47.20764,-2.60456 -45.08397,-4.44316 0.59619,-0.51616 6.28183,-2.27657 12.63477,-3.91203 54.68256,-14.07715 91.01506,-43.40047 105.75712,-85.35471 l 2.07454,-5.90391 -11.02456,11.24808 c -21.98641,22.43217 -48.22272,35.66576 -85.78939,43.27215 -40.44596,8.18939 -83.20689,7.28372 -127.74622,-2.70564 -23.70787,-5.31724 -56.63923,-17.02415 -70.82229,-25.1769 l -4,-2.2993 8.66667,0.6897 c 24.95519,1.98594 39.59095,2.22343 54.55899,0.88529 43.01195,-3.84524 82.34738,-17.33465 109.32716,-37.49186 9.48536,-7.08673 29.06887,-26.13624 27.95335,-27.19112 -0.27839,-0.26326 -6.62009,1.57048 -14.09267,4.07497 -18.73856,6.28038 -35.1916,9.603 -56.7477,11.45998 -46.15714,3.97626 -104.07213,-7.71996 -159.6658,-32.2453 C 205.2018,823.67476 167.56825,795.02479 144.39511,764.53587 136.63108,754.32072 124,734.66683 124,732.80118 c 0,-0.47364 4.65,2.39299 10.33333,6.37029 35.87273,25.10433 86.43405,38.39354 130.36173,34.26342 15.43249,-1.45097 40.9795,-6.66763 45.76333,-9.3448 2.43808,-1.36442 2.26976,-1.41658 -13.12506,-4.06738 -39.9506,-6.87902 -102.67691,-38.54867 -148,-74.72317 C 130.34153,670.14129 99.235243,638.65719 84.817415,620.00003 46.044268,569.82626 21.664814,520.87129 2.8138196,455.33336 -0.22142579,444.78093 -1.2202169,444.09168 13.155481,462.47 24.589422,477.08748 50.043095,501.38095 65.050969,512.00002 97.820192,535.18644 131.63838,550.73973 174,562.10666 c 17.28667,4.63855 17.71897,4.01502 2.34293,-3.37932 -25.16082,-12.09983 -51.79554,-32.7025 -69.41051,-53.69088 C 66.922132,457.36388 34.771534,373.09408 20.56786,278.66668 c -2.976283,-19.78662 -5.985425,-64.33186 -4.233289,-62.66667 0.385811,0.36667 3.231162,6.66667 6.323002,14 8.330513,19.7586 15.273752,32.56712 28.156839,51.94224 34.333261,51.63443 80.048728,90.63113 132.235598,112.80102 22.98014,9.76237 22.68781,9.83375 11.97936,-2.92502 -51.71455,-61.61616 -71.46555,-150.08393 -54.28515,-243.15158 2.80066,-15.17138 10.21959,-44.07491 11.69071,-45.54604 0.28689,-0.28689 1.27075,4.12218 2.18635,9.79794 0.9156,5.67576 3.35945,17.24099 5.43078,25.7005 10.36809,42.34433 27.14125,74.47914 52.82594,101.20642 11.81487,12.29446 12.34322,12.67088 12.40951,8.84119 0.26362,-15.23025 3.18552,-42.74172 5.5038,-51.8215 C 243.189,148.28819 283.90639,78.947826 327.53468,32.094389 337.93414,20.926171 359.96444,0.8533334 360.85019,1.7390778 c 0.25471,0.2547124 -1.6474,6.7176207 -4.22691,14.3620182 -18.1833,53.886354 -25.48558,99.142204 -24.18702,149.898914 1.37828,53.87268 9.12135,87.19957 35.70348,153.67093 8.13709,20.34766 19.56715,51.09574 25.40012,68.32908 15.89255,46.95406 27.45854,68.96665 50.93077,96.93227 27.2907,32.51507 83.25475,77.14912 118.8627,94.79878 21.5964,10.7046 45.52425,17.60229 61.06171,17.60229 h 7.17413 l 7.42929,-15.66667 c 22.40241,-47.24153 26.83031,-74.52862 15.74708,-97.04186 -9.92308,-20.15664 -34.45779,-33.10976 -66.07887,-34.8864 -29.95045,-1.68277 -69.17701,7.90662 -81.78573,19.99348 -5.44024,5.21508 -9.95464,13.88691 -12.20891,23.4524 -2.09808,8.90279 -3.078,7.54365 -6.84703,-9.49674 -2.12224,-9.59499 -2.61445,-15.64101 -2.20382,-27.07062 0.46812,-13.02969 0.9997,-15.72288 4.63804,-23.49784 5.00393,-10.69315 11.41212,-18.0068 23.86633,-27.23859 l 9.45888,-7.01147 1.48369,-14.57279 c 2.27191,-22.31468 8.40053,-35.29547 23.08105,-48.88704 13.0752,-12.10532 23.49892,-17.49031 68.5175,-35.39676 47.07259,-18.72344 69.51047,-31.63721 89.22567,-51.35241 15.965,-15.965 26.36396,-32.40743 32.72608,-51.74521 1.64396,-4.99685 3.24619,-8.82799 3.56053,-8.51366 0.31433,0.31433 -0.0565,7.23122 -0.82412,15.37086 -3.66835,38.89958 -15.40511,74.0099 -31.96077,95.61011 -3.70006,4.82749 -6.72739,9.41188 -6.72739,10.18754 0,1.85757 16.77513,0.37014 32.66666,-2.89653 35.20265,-7.23625 68.26434,-26.60131 82.02361,-48.04327 2.33991,-3.64643 4.50327,-6.62988 4.80746,-6.62988 2.29087,0 -8.78668,33.42034 -15.21486,45.90239 -12.92512,25.09759 -34.95452,46.58241 -58.39465,56.9511 l -6.01034,2.65865 11.33293,7.11503 c 6.2331,3.91327 17.81058,12.10112 25.72772,18.19523 58.60706,45.11198 69.71689,50.55265 104.09281,50.97605 l 16.36469,0.20156 -5.18315,2.20156 c -10.70365,4.54642 -28.96888,8.16438 -45.33125,8.97919 l -16.4517,0.81925 13.11837,17.55756 c 15.12051,20.23723 30.2906,44.98333 44.16519,72.04415 12.56702,24.51057 13.026,24.8751 30.28651,24.05379 7.33333,-0.34895 18.91484,-1.97157 25.73669,-3.60583 12.08207,-2.89442 12.77345,-3.27363 26.69079,-14.63916 94.37915,-77.0743 162.18005,-194.86738 183.46685,-318.74385 5.9294,-34.50543 6.7759,-45.46054 6.6968,-86.66667 -0.065,-33.83356 -0.4915,-42.009695 -3.0507,-58.474107 C 1156.8132,55.692596 1150.14,28.55001 1144.1161,12.078129 1141.8522,5.8877664 1140,0.59791274 1140,0.3228989 c 0,-0.27501384 1.4684,-0.31017175 3.2632,-0.0781287 4.5991,0.59460635 38.1427,32.7656978 51.5988,49.4873938 28.5556,35.485811 52.271,79.062236 65.6841,120.692986 7.1541,22.20427 8.9866,32.08659 9.9344,53.57473 l 0.8528,19.33321 10.4892,-11.99987 c 26.9361,-30.81561 44.9691,-68.27929 55.5326,-115.36952 5.6103,-25.009552 5.23,-23.778069 6.5754,-21.297029 0.5965,1.1 2.6071,7.399999 4.4679,13.999999 13.9225,49.38027 17.3915,104.44508 9.4918,150.66668 -8.9719,52.49525 -26.9977,89.85602 -64.1698,133 -6.1603,7.15 -10.8595,13 -10.4427,13 0.4168,0 9.2998,-4.27491 19.7401,-9.4998 47.9818,-24.01287 74.6366,-42.75017 104.3272,-73.33801 30.6205,-31.54581 54.7349,-69.03173 69.3657,-107.82886 6.5765,-17.43927 6.8746,-16.26481 4.5689,18 -5.7183,84.97597 -36.9649,186.78705 -73.5248,239.56601 -25.2061,36.38837 -61.612,66.24537 -101.4691,83.21645 -17.4508,7.43052 -3.6938,4.87141 27.0476,-5.03145 40.9719,-13.19844 78.7639,-31.73831 110.9259,-54.41767 12.4455,-8.77613 32.9011,-27.92659 44.1501,-41.33333 l 6.1531,-7.33334 -4.4256,14.66667 c -36.921,122.35711 -128.5446,226.32019 -237.2883,269.24546 -17.5852,6.94153 -42.927,14.22585 -58.1818,16.72393 -5.5,0.90066 -10.9,1.92374 -12,2.27352 -2.653,0.84358 14.6719,6.37325 31.3333,10.00079 19.4444,4.23349 57.9568,4.19218 78,-0.0837 27.7967,-5.92991 52.4099,-15.95281 70.7722,-28.81966 5.8086,-4.0702 10.5611,-7.0296 10.5611,-6.57645 0,0.45316 -3.6289,6.24924 -8.0643,12.88017 -38.1944,57.10136 -97.8011,97.77837 -170.5167,116.36475 -58.6225,14.98412 -121.1515,11.51349 -176.419,-9.79205 -5.6833,-2.19091 -10.2958,-3.58597 -10.2499,-3.10013 0.046,0.48585 6.3769,5.98336 14.0689,12.21669 45.4684,36.84606 85.9315,54.40116 138.5144,60.09514 14.626,1.58379 54.7718,0.98235 60.0729,-0.89997 1.965,-0.69774 2.2392,-0.53504 1.1311,0.67123 -0.8045,0.87572 -6.8045,3.88885 -13.3333,6.69586 -43.1301,18.54322 -74.3449,26.12337 -113.8707,27.65223 -42.6375,1.64922 -81.8782,-6.33569 -116.40756,-23.68721 -19.39891,-9.74824 -31.72288,-18.60052 -46.61401,-33.48273 -14.10478,-14.09633 -14.66627,-13.93574 -8.00234,2.28879 7.02735,17.10936 24.85181,39.79953 42.79998,54.48349 19.72331,16.13626 40.04533,26.01143 67.51793,32.8093 l 14.6275,3.61943 -9.9608,0.84599 c -41.16788,3.4965 -76.4506,2.36061 -96.83629,-3.11753 -32.30183,-8.6803 -60.75589,-32.00944 -83.78985,-68.69827 -4.03403,-6.42546 -7.33459,-11.28304 -7.33459,-10.79462 0,2.27089 13.66289,31.04064 20.6839,43.5538 28.90165,51.5098 63.67945,91.65023 126.64943,146.17843 32.0378,27.7428 56.8795,52.5103 69.3271,69.12 25.9682,34.6515 43.1642,76.6104 48.7513,118.9551 2.3006,17.4365 0.9153,54.6729 -2.6345,70.8127 -7.6786,34.9121 -22.8964,66.9321 -44.206,93.0144 -7.9341,9.711 -32.6603,33.8845 -34.6593,33.8845 -0.6158,0 -3.8613,5.3083 -7.2122,11.7961 -22.5177,43.5985 -55.76336,75.701 -130.69973,126.2055 -13.93334,9.3906 -30.22096,20.8657 -36.19472,25.5003 -22.46806,17.431 -37.18759,38.2009 -45.00091,63.4981 -1.06426,3.4458 -17.60628,3.4415 -18.70009,0 z M 530.33047,1587.6667 c -1.61384,-10.9465 10.59434,-59.2527 18.28045,-72.3333 5.27927,-8.9845 32.4277,-43.4178 42.52118,-53.9311 45.55857,-47.4536 60.14275,-56.2671 146.8679,-88.7554 27.74925,-10.3953 57.32676,-24.1714 71.47655,-33.2912 30.82842,-19.8697 52.99476,-46.6194 66.44026,-80.1785 15.03211,-37.5192 18.07926,-74.2064 8.91323,-107.314 -3.062,-11.0599 -9.73239,-28.0566 -13.55129,-34.5298 -1.81809,-3.0817 -1.89025,-2.6791 -0.95598,5.3333 1.86267,15.9745 1.04378,47.7614 -1.54391,59.9299 -7.92556,37.2699 -25.19376,69.1392 -53.30965,98.3857 -34.50845,35.8961 -64.55377,52.4777 -140.80254,77.707 -53.75183,17.7855 -73.72575,26.5138 -99.33334,43.4073 -30.74301,20.2813 -50.41609,44.4032 -59.18612,72.5701 -8.46805,27.1971 -7.97193,59.7427 1.34424,88.1827 2.99732,9.15 11.81072,29.1507 12.84543,29.1507 0.34785,0 0.34497,-1.95 -0.006,-4.3334 z m 373.55406,-38.553 c 39.19456,-29.3232 57.86638,-46.5925 74.72662,-69.1136 10.38815,-13.876 23.28535,-38.7193 28.65385,-55.1946 13.5787,-41.6717 14.619,-94.0597 2.8356,-142.8002 -1.7721,-7.3305 -2.9952,-13.5551 -2.7178,-13.8324 0.2773,-0.2774 2.0795,3.0203 4.0048,7.3281 18.3389,41.0333 30.0653,89.2391 32.3934,133.1657 l 0.9187,17.3334 3.0737,-7.9577 c 28.4197,-73.5788 15.0105,-161.1906 -37.4532,-244.709 -16.2604,-25.8854 -41.75877,-57.7463 -76.27361,-95.3059 -22.65256,-24.6509 -60.71326,-64.648 -60.71326,-63.8022 0,0.3923 3.22168,8.0021 7.15928,16.9107 17.15023,38.8012 23.52979,65.1761 26.43351,109.2834 5.26608,79.9913 -16.70169,140.919 -69.11436,191.6889 -25.5324,24.7321 -48.78485,40.5529 -90.28846,61.4317 -44.2116,22.241 -61.32371,33.7376 -82.37354,55.3417 -17.22525,17.6788 -26.78146,32.2943 -13.03341,19.9336 19.05778,-17.1345 48.99336,-31.8275 76.16077,-37.381 14.58118,-2.9807 17.94346,-2.446 7.52818,1.1973 -42.57646,14.8933 -84.5538,53.2722 -106.49791,97.3685 -9.64004,19.3715 -12.23962,28.8699 -3.72183,13.5989 24.16292,-43.3202 54.60693,-66.6296 132.99898,-101.8303 25.19593,-11.3138 45.88797,-22.0083 58.63301,-30.304 9.41399,-6.1276 26.95545,-19.7361 26.29336,-20.3982 -0.22055,-0.2205 -4.56584,1.6259 -9.65619,4.1033 -9.95127,4.843 -30.25709,12.0562 -37.85472,13.4471 -3.37215,0.6173 -0.92991,-1.1393 8.80418,-6.3327 48.17008,-25.7002 87.40382,-66.5387 111.07402,-115.6175 26.24787,-54.4234 31.97427,-110.7387 17.45656,-171.6738 -1.35159,-5.673 -2.29277,-10.4793 -2.09151,-10.6805 0.91658,-0.9166 11.96634,28.1723 14.80511,38.9749 9.37492,35.6754 11.94439,78.2804 7.19966,119.3794 -2.95381,25.586 -8.48373,45.9821 -17.99332,66.3649 -3.17285,6.8007 -5.14409,11.9788 -4.38053,11.5069 2.41241,-1.491 14.48279,-20.8044 19.43741,-31.1011 2.61898,-5.4428 6.79113,-15.3428 9.27144,-22 l 4.50967,-12.104 -0.78176,7.3333 c -3.2756,30.727 -17.60525,73.0688 -34.41977,101.7049 -3.97072,6.7623 -9.47705,16.7951 -12.23629,22.2951 -12.33512,24.5877 -34.9449,51.0522 -69.25436,81.0615 -4.36305,3.8162 -7.41501,6.9385 -6.78213,6.9385 1.58265,0 34.45449,-24.6931 50.71495,-38.0967 43.26449,-35.6634 68.30813,-75.2183 77.93755,-123.0979 7.65062,-38.0405 6.55763,-79.2286 -3.17024,-119.4668 -1.77219,-7.3305 -2.99524,-13.5551 -2.71788,-13.8324 0.27735,-0.2774 2.08742,3.0203 4.02237,7.3281 20.95667,46.6562 33.85857,106.3765 32.22561,149.1657 -1.08756,28.4976 -7.3345,49.5328 -22.5282,75.8589 -4.90461,8.4982 -7.25205,14.1998 -7.94317,19.2927 -1.79822,13.2512 -15.27806,37.8181 -31.92418,58.1818 -7.78531,9.5239 -31.55328,33.2367 -45.83468,45.7281 -4.36305,3.8162 -7.41501,6.9385 -6.78213,6.9385 0.63288,0 9.30265,-6.0988 19.26615,-13.553 z M 851.9395,1148.2392 c 7.2418,-21.6499 6.60931,-45.0374 -1.58359,-58.5556 -5.36925,-8.8592 -26.67375,-34.3502 -28.70873,-34.3502 -2.35479,0 -11.99682,13.5847 -17.8582,25.1606 -5.53021,10.9218 -10.45565,27.4123 -10.45565,35.0058 0,5.3391 1.95249,6.5376 12.30359,7.5526 19.10485,1.8733 33.36231,17.1562 35.29297,37.8312 l 0.80807,8.6534 3.69128,-6.4351 c 2.0302,-3.5394 4.95982,-10.2276 6.51026,-14.8627 z M 584.38222,933.30081 c 23.21784,-21.27907 30.35682,-41.2113 20.15308,-56.26799 l -3.86244,-5.69945 -0.7846,11.33334 c -1.23003,17.76732 -5.50226,28.03904 -20.39329,49.03159 -9.68864,13.6585 -8.64173,14.00178 4.88725,1.60251 z m 341.43577,-2.96743 c -0.55333,-0.91667 -3.29136,-4.57386 -6.08451,-8.12709 -13.41245,-17.06231 -22.31771,-39.37922 -26.28569,-65.87292 -3.63248,-24.25355 -4.42439,-28.29916 -5.41909,-27.6844 -0.58432,0.36113 -2.40259,5.61285 -4.04061,11.6705 -7.35704,27.20743 2.89829,54.99868 29.77215,80.68057 10.93305,10.44813 14.30725,13.05994 12.05775,9.33334 z M 457.63125,918.70799 c 38.45246,-9.72069 60.00474,-20.39996 77.2027,-38.25437 16.99625,-17.645 23.68244,-33.58804 24.79382,-59.12025 0.36709,-8.43333 0.11332,-17.43163 -0.56394,-19.99622 l -1.23139,-4.6629 -4.79777,8.6629 c -2.63877,4.76459 -7.85821,17.24206 -11.59876,27.72771 -3.74055,10.48564 -8.88625,23.20556 -11.43488,28.26648 -11.47529,22.78687 -38.21588,42.11976 -77.37688,55.94188 -19.02106,6.7136 -17.54626,7.1362 5.0071,1.43477 z m 591.70205,-1.23516 c -21.5319,-8.03332 -35.1681,-16.82392 -50.14675,-32.32726 -11.29149,-11.68701 -20.69479,-25.87394 -33.89998,-51.14553 -12.40802,-23.746 -17.6056,-31.39718 -28.13035,-41.40978 -14.36531,-13.66628 -31.49906,-23.52899 -48.43635,-27.88144 -11.87304,-3.05106 -14.51746,-2.34692 -4.97509,1.32473 29.91612,11.51095 47.27634,28.23051 56.90737,54.80729 3.27961,9.05007 3.28359,9.11269 0.33351,5.2561 -20.34037,-26.59064 -42.4779,-42.71346 -68.49522,-49.88525 -9.46499,-2.60907 -29.82377,-5.19384 -29.82377,-3.78646 0,0.40617 5.73735,3.4563 12.74968,6.77807 29.17248,13.81914 52.6691,32.36904 86.09905,67.9727 36.1151,38.46341 51.51432,51.23136 75.1454,62.30525 11.3313,5.31004 32.8448,11.72032 39.3392,11.72174 1.9659,4.3e-4 -0.7689,-1.52975 -6.6667,-3.73016 z M 711.16951,906.33124 c -45.83253,-48.32817 -49.65868,-119.86149 -10.21605,-190.99787 5.84539,-10.54241 18.45482,-29.28217 17.20826,-25.57442 -4.89807,14.56876 -9.34101,54.79404 -8.02527,72.65893 1.1173,15.17063 1.77925,15.45595 5.15108,2.22028 4.45895,-17.50301 11.2855,-33.06375 25.65815,-58.48633 26.1945,-46.33327 31.4289,-61.23849 39.8536,-113.48514 l 0.86,-5.33333 2.39427,6.91696 c 3.53786,10.22074 6.41437,24.19446 9.14316,44.41638 l 2.42897,18 2.98428,-6.48719 c 4.27843,-9.30041 10.23592,-33.96101 12.12058,-50.17228 2.01685,-17.34836 0.92386,-55.70546 -1.95373,-68.56324 -3.39407,-15.16554 -7.66903,-27.38565 -13.78718,-39.41111 l -5.78273,-11.36619 9.51702,9.33333 c 11.62907,11.40461 23.79668,26.714 33.91068,42.66667 8.40212,13.25256 8.58154,12.62839 2.46974,-8.59219 -4.85723,-16.86466 -10.22144,-28.78624 -19.19907,-42.66859 -27.98004,-43.26628 -71.80738,-78.21171 -116.09081,-92.56419 -20.44012,-6.62475 -23.2125,-6.99573 -13.78619,-1.84475 24.3813,13.32307 41.6917,31.32198 52.68448,54.77996 3.03402,6.47444 5.24083,12.04729 4.90401,12.38411 -0.33682,0.33682 -3.22823,-2.51193 -6.42537,-6.33055 -8.05109,-9.61614 -25.45039,-24.57597 -40.16395,-34.53275 l -12.36077,-8.36464 12.09083,11.86679 c 6.64995,6.52674 14.35532,15.35189 17.12303,19.61145 16.57214,25.50481 24.36373,56.53878 20.85158,83.05206 -1.43893,10.86251 -6.9361,30.52889 -9.17468,32.82286 -0.51144,0.52409 -0.70645,-5.57511 -0.43336,-13.55378 0.86569,-25.29207 -5.27933,-46.75679 -19.81962,-69.23051 -4.44737,-6.87392 -8.36181,-12.22237 -8.69874,-11.88543 -0.33694,0.33693 0.58511,4.09385 2.04899,8.3487 14.88859,43.27443 6.79207,101.13987 -19.19282,137.17015 -5.6966,7.89883 -32.79521,35.84839 -32.79521,33.82504 0,-0.54426 3.03314,-5.82933 6.74032,-11.7446 11.48065,-18.31881 21.50406,-44.00514 26.60878,-68.18858 3.76632,-17.84274 3.11367,-19.74571 -1.49551,-4.36056 -5.18947,17.32215 -17.41927,42.47708 -27.36583,56.28758 -4.33919,6.02484 -15.49485,19.52484 -24.79034,30 -25.66292,28.91974 -35.93108,43.80058 -40.22007,58.28776 -4.55941,15.40063 -2.03439,67.06578 4.46859,91.43311 6.62896,24.83935 7.25465,24.83871 8.19329,-0.008 0.44325,-11.73333 1.59957,-24.63333 2.5696,-28.66666 l 1.76369,-7.33334 1.73076,12.66667 c 3.40044,24.88632 12.6771,47.13346 29.44943,70.62515 13.58142,19.02245 44.00934,49.52386 65.93114,66.09038 10.15353,7.67313 18.82716,13.95114 19.27473,13.95114 0.44757,0 -3.31251,-4.35096 -8.35574,-9.6688 z m 161.55654,-31.99786 c -1.21478,-13.37552 -4.50369,-29.56885 -7.34219,-36.15005 l -2.37933,-5.51662 -0.97374,7.54269 c -0.53556,4.14848 -0.54443,10.14849 -0.0197,13.33334 0.968,5.87551 9.81944,30.4573 10.96709,30.4573 0.3442,0 0.23075,-4.35 -0.25211,-9.66666 z M 518.70389,838.66671 c 7.79722,-23.11617 15.46249,-37.5352 26.37548,-49.61457 8.76403,-9.70075 1.78199,-4.96459 -7.98164,5.41422 -11.29491,12.00656 -17.55351,22.80169 -20.2942,35.00438 -2.23794,9.96428 -4.08251,23.49206 -3.07195,22.5293 0.38487,-0.36667 2.62241,-6.36667 4.97231,-13.33333 z m -90.07782,-13.30286 c 37.41914,-7.43561 70.67843,-23.36573 89.59496,-42.91309 7.39651,-7.64317 40.38528,-49.10828 40.42294,-50.80946 0.0258,-1.16543 -3.34772,-0.49796 -16.64397,3.29312 -15.31658,4.36712 -31.80579,13.16289 -60.14834,32.08469 -52.27575,34.89986 -79.26159,44.33222 -126.51833,44.22194 -26.08043,-0.0609 -42.40564,-2.57022 -60.13431,-9.24327 -18.90585,-7.11614 0.69321,4.63336 22.84391,13.69476 14.13001,5.78031 29.43302,10.17257 42.65061,12.24156 13.69284,2.14338 51.38903,0.71714 67.93253,-2.57025 z m 580.70723,-3.26607 c 0,-0.31291 -3.251,-2.05729 -7.2245,-3.8764 -12.08197,-5.53133 -22.43344,-13.41703 -34.72919,-26.45655 l -11.72238,-12.43146 4.93623,9.82834 c 8.20124,16.32917 20.91307,26.73311 38.42594,31.44954 7.4063,1.99462 10.3139,2.41368 10.3139,1.48653 z m 126.6183,-2.94582 c 14.8211,-2.64162 33.8358,-8.7881 48.7151,-15.74712 11.6655,-5.45595 26.4178,-13.99505 24.2663,-14.04614 -0.5868,-0.0139 -7.7868,1.75856 -16,3.93886 -44.6996,11.86617 -81.0252,11.17819 -116.8752,-2.21353 -16.2728,-6.07867 -30.1596,-13.06146 -64.0317,-32.19745 -30.28221,-17.10792 -50.6342,-26.29721 -68.69277,-31.01603 -10.34903,-2.70427 -15.11849,-3.13291 -34.66666,-3.11554 -24.14194,0.0215 -37.87777,2.29039 -51.33334,8.47945 l -6,2.75978 6,-0.91541 c 3.3,-0.50348 12,-0.83742 19.33334,-0.74211 27.81172,0.36149 51.51952,9.73346 90,35.57805 36.46813,24.49303 73.52153,41.57769 104.51673,48.19074 22.1635,4.72873 42.2844,5.05383 64.7682,1.04645 z M 418.66667,745.93835 c 50.31113,-10.54207 59.57486,-13.27291 88.02006,-25.94726 25.6393,-11.42412 59.66726,-32.0257 54.54337,-33.02224 -1.15679,-0.22498 -12.25679,2.69847 -24.66667,6.49656 -45.30719,13.86642 -49.81908,14.83149 -72.56343,15.52103 -30.8576,0.93551 -47.09932,-2.39073 -92.33312,-18.90948 -34.00239,-12.41719 -56.77258,-19.59948 -91.00021,-28.70375 -46.14674,-12.27464 -77.63333,-23.08497 -106.53793,-36.5778 -7.26253,-3.39018 -13.39124,-5.97733 -13.61936,-5.74921 -0.69905,0.69905 61.5876,37.39066 82.82395,48.78966 24.94043,13.38722 45.13981,22.06681 69.9339,30.0503 10.59697,3.41213 19.58526,6.52192 19.97397,6.91063 0.38871,0.38871 -13.68154,0.37827 -31.26722,-0.0232 L 270,704.04364 l 20,6.75198 c 24.31404,8.2084 71.38742,20.29174 91.30741,23.43785 l 14.6157,2.30836 -10.38136,5.08675 c -9.87308,4.83769 -24.3725,16.9859 -18.20842,15.25575 1.46667,-0.41167 24.56667,-5.33736 51.33334,-10.94598 z m 694.45643,-2.70338 c 18.0616,-2.68188 19.9646,-3.72991 10.7279,-5.90791 -7.658,-1.80573 -25.5448,-8.07767 -24.8936,-8.72886 0.2142,-0.21426 9.9865,-1.6473 21.7161,-3.18453 28.9669,-3.79628 46.4559,-7.41477 64.6874,-13.38386 14.0903,-4.61324 40.9589,-16.82108 39.729,-18.05101 -0.5194,-0.51934 -53.539,5.24176 -62.4232,6.78288 -7.4699,1.29578 -4.3979,-0.21576 14.7823,-7.27358 41.5957,-15.30605 59.6152,-23.53613 86.2428,-39.38984 15.6704,-9.32999 62.1867,-40.09316 58.9749,-39.00254 -1.1,0.37351 -10.9122,4.62513 -21.8049,9.44804 -33.1532,14.6791 -53.369,21.62935 -112.8618,38.80241 -19.4333,5.60957 -46.1333,13.70507 -59.3333,17.98998 -42.9562,13.94418 -57.0122,16.62439 -86.6667,16.52564 -16.8169,-0.056 -27.9669,-1.01914 -52.66667,-4.54933 -26.7617,-3.82491 -35.02954,-4.47847 -56.66666,-4.47946 -22.00177,-10e-4 -26.7361,0.3853 -36,2.93747 -10.25637,2.82559 -30.95985,11.71416 -29.85602,12.81799 0.29395,0.29395 5.36082,-0.86347 11.25973,-2.57204 38.35925,-11.11041 72.03593,-6.1354 135.12142,19.96131 54.5977,22.58554 69.5562,25.7675 99.9313,21.25724 z M 461.94598,679.94301 c 16.38096,-1.87653 27.9233,-4.30927 56.72069,-11.95484 13.56666,-3.60188 30.36666,-7.48182 37.33333,-8.62208 18.73248,-3.06602 18.38869,-2.92741 21.27023,-8.57569 l 2.63599,-5.16697 -7.61978,-2.76144 c -27.85397,-10.09439 -37.56914,-10.70716 -116.95311,-7.37668 -63.50467,2.66428 -113.39444,-21.63567 -178.32779,-86.85864 -10.81363,-10.86186 -19.47146,-19.9385 -19.23964,-20.17033 0.23183,-0.23182 11.17934,3.19622 24.3278,7.61787 26.98587,9.07499 40.48849,12.70406 69.23963,18.60941 26.71106,5.48633 39.42694,9.46122 56.43799,17.64208 10.74326,5.16659 13.41215,6.92879 10.89535,7.19388 -1.83334,0.1931 -8.62448,0.73749 -15.09144,1.20975 -11.69173,0.8538 -11.74442,0.87388 -9.33333,3.55616 4.79413,5.33337 19.45951,14.8221 28.75499,18.60492 12.81563,5.21536 33.46971,9.18395 85.66978,16.46107 24.2,3.37368 46.31056,6.73918 49.13459,7.47889 2.82402,0.73971 5.43458,1.04493 5.80125,0.67826 0.36667,-0.36667 -1.9439,-1.31868 -5.13459,-2.11558 -38.8538,-9.7041 -68.97102,-24.64796 -101.13459,-50.18194 C 441.30651,562.48775 396.93647,517.6085 386.27112,503.33336 360.48415,468.81855 353.40899,434.62772 353.35269,344.25466 353.34,323.87986 352.87412,313.45978 352,314.00001 c -0.73333,0.45323 -1.33333,2.49163 -1.33333,4.52977 0,2.03815 -2.71227,17.29728 -6.02726,33.90919 -3.31499,16.6119 -6.48775,35.45892 -7.05056,41.88225 l -1.02331,11.6788 -5.11597,-9.96407 c -26.02723,-50.69169 -38.40998,-137.54625 -29.3743,-206.03594 0.46715,-3.54093 0.29255,-4.66118 -0.51951,-3.33333 -1.3052,2.13421 -3.06606,13.90038 -5.78665,38.66666 -2.24113,20.40159 -2.20971,83.14685 0.0511,102.00001 4.10978,34.27239 12.47315,71.39916 22.68318,100.69543 5.16833,14.82982 5.22257,15.16237 1.74855,10.72042 -1.97188,-2.52129 -11.86556,-15.12129 -21.98595,-28 -31.83224,-40.50816 -52.19772,-73.69503 -61.64343,-100.45193 -3.35591,-9.50631 -6.38783,-14.90606 -5.22137,-9.2991 0.26719,1.28435 2.04112,10.73518 3.94207,21.00185 8.38784,45.3011 22.59745,88.56444 41.55197,126.51131 18.57117,37.1794 36.14099,58.0369 69.59824,82.62151 18.813,13.82392 18.0521,12.77136 9.26971,12.82283 -9.77523,0.0573 -25.46468,-2.14356 -37.83457,-5.30724 -14.99356,-3.83471 -28.50152,-9.64895 -52.91085,-22.77444 -12.83763,-6.90311 -34.20626,-16.75314 -50.31177,-23.19159 -28.90871,-11.55675 -40.61493,-18.01953 -53.09702,-29.31384 -8.46885,-7.66297 -19.96001,-21.60741 -29.42075,-35.70187 -3.81486,-5.68334 -7.23003,-10.33334 -7.58925,-10.33334 -1.16637,0 4.89516,11.06583 12.38382,22.60769 18.69374,28.81165 35.73446,47.29961 60.81123,65.97584 12.25202,9.12485 16.84297,13.44327 20.4715,19.25629 20.26105,32.45885 51.93255,68.13926 81.73451,92.08025 39.75322,31.93521 88.94781,56.60121 123.66538,62.00541 14.58261,2.26996 23.10766,2.42232 38.2806,0.68418 z m 613.38732,-12.54896 c 46.6066,-8.45767 102.901,-40.17934 147.6252,-83.18627 14.4196,-13.86591 38.6729,-41.67408 53.8049,-61.6913 3.9372,-5.20818 10.7191,-10.83904 24.6667,-20.48017 13.7249,-9.48717 23.651,-17.70075 34.6437,-28.66667 15.93,-15.89118 23.6997,-26.36458 33.78,-45.53488 8.3216,-15.82549 8.9567,-19.9746 0.9952,-6.50141 -20.5674,34.80621 -47.5601,54.36925 -90.2778,65.42919 -14.5503,3.76715 -17.0912,4.91807 -29.8406,13.5163 -23.894,16.11421 -39.0797,22.36407 -60.9395,25.08048 -12.0778,1.50084 -41.7911,1.61087 -41.7911,0.15476 0,-0.46858 2.8333,-2.35094 6.2962,-4.18301 31.7677,-16.80682 52.8456,-41.78889 72.2488,-85.63137 7.5776,-17.12194 20.6371,-54.97197 27.4835,-79.65429 3.9912,-14.38934 14.0327,-57.54163 13.9398,-59.90493 -0.017,-0.44392 -5.0105,8.84159 -11.0955,20.63448 -11.8224,22.91191 -28.5213,49.17179 -42.3628,66.61787 -12.613,15.89765 -33.6905,40.53784 -34.2219,40.00643 -0.2548,-0.25478 1.9993,-7.87384 5.0091,-16.93124 20.7293,-62.38153 26.032,-131.225 15.9361,-206.89382 -1.4778,-11.07641 -3.0247,-20.46187 -3.4376,-20.85656 -0.4129,-0.3947 -0.3906,2.28237 0.05,5.94904 0.4401,3.66666 1.1741,20.76666 1.6311,38 0.6606,24.91044 0.3811,35.02308 -1.3635,49.33333 -4.4357,36.38629 -14.9639,78.70887 -24.8021,99.70301 -2.9341,6.26124 -5.5589,11.13949 -5.8329,10.84054 -0.274,-0.29895 -1.2152,-6.80046 -2.0916,-14.44781 -1.8458,-16.10576 -6.2291,-34.35367 -11.4165,-47.52726 -5.0952,-12.93923 -6.4829,-13.74848 -5.4623,-3.18537 1.5443,15.98464 -2.538,73.12031 -7.239,101.31438 -8.0185,48.09161 -23.4952,79.70769 -53.859,110.0244 -26.7181,26.67656 -54.0613,44.13641 -120.07607,76.67377 -24.93333,12.28915 -46.53333,23.35149 -48,24.58298 l -2.66666,2.23907 2.66666,-0.91055 c 1.46667,-0.50081 12.86667,-4.42618 25.33334,-8.72306 25.5389,-8.80248 53.53283,-14.93502 97.22263,-21.29828 31.6361,-4.60766 37.8915,-6.42296 58.5977,-17.00488 l 14.8463,-7.58719 L 1100,575.82793 c -8.4333,-0.47621 -18.6333,-0.59124 -22.6667,-0.25561 l -7.3333,0.61023 5.4259,-2.58493 c 2.9842,-1.42172 10.3669,-6.24849 16.4059,-10.72617 11.3287,-8.3997 12.239,-8.77081 33.5015,-13.65772 23.6981,-5.44668 98.979,-27.66395 115.2188,-34.00389 1.9754,-0.77122 2.3044,-0.56857 1.4559,0.89693 -3.3757,5.83047 -17.2995,21.42587 -31.0116,34.73468 -36.6255,35.54823 -77.4118,59.47971 -117.0135,68.65805 -7.3873,1.71213 -21.4631,2.37251 -67.9829,3.1895 -61.723,1.084 -65.24673,1.41967 -86,8.19241 -15.83833,5.16876 -40.5747,18.90158 -47.05704,26.12452 -2.38083,2.65283 -2.35688,2.65561 6,0.69526 14.43306,-3.38568 46.18678,-1.61981 85.72371,4.76721 41.19523,6.65493 38.79113,6.39428 61.33333,6.64976 11.4652,0.12994 22.7818,-0.53521 29.3333,-1.72411 z M 498.54062,582.0962 c -0.31378,-0.31377 -5.36378,-3.68895 -11.22223,-7.50039 -53.70851,-34.94213 -88.19175,-79.77516 -101.98582,-132.59579 -2.30919,-8.84243 -2.4434,-9.04145 -2.55165,-3.78396 -0.0628,3.05216 0.73819,10.0047 1.78007,15.4501 9.30051,48.60941 41.19036,88.20131 96.77234,120.14486 13.02076,7.48317 19.54817,10.62606 17.20729,8.28518 z m 521.00178,-26.18842 c 23.5145,-10.54627 48.1542,-27.27194 63.7687,-43.28677 14.8252,-15.20524 27.78,-39.64095 35.9346,-67.78087 4.8326,-16.67634 4.1287,-19.82214 -1.1704,-5.23053 -17.7334,48.83044 -46.0113,82.21729 -93.6388,110.55612 -8.3068,4.94259 -15.1032,9.17727 -15.1032,9.41041 0,0.80934 1.1333,0.40211 10.2091,-3.66836 z M 547.21544,400.66669 c 5.07749,-14.00087 9.23034,-21.00832 17.9564,-30.29938 10.83437,-11.53588 25.89616,-19.4551 45.05715,-23.69024 35.32689,-7.80828 39.4495,-9.11597 48.74019,-15.4604 10.19391,-6.96122 27.35241,-24.51823 36.52721,-37.37555 7.3836,-10.3472 17.83694,-28.41269 17.83694,-30.82586 0,-0.9438 -4.35,1.83968 -9.66666,6.1855 -24.53746,20.05681 -54.1715,36.49976 -90.3873,50.15293 -32.74979,12.34651 -47.77443,20.42823 -59.36751,31.93368 -13.20632,13.10649 -19.24519,27.39957 -19.24519,45.5504 0,11.09676 0.75677,12.73233 5.66062,12.23403 3.5516,-0.36088 4.30366,-1.27858 6.88815,-8.40511 z m 46.04612,-9.50696 c 6.77853,-2.81604 12.82056,-7.82964 17.32407,-14.37526 l 3.99205,-5.80225 -4.12217,-0.82443 c -6.41302,-1.28261 -18.67072,-0.78533 -23.45946,0.95172 -5.95782,2.16111 -11.84421,8.02172 -15.70049,15.63171 -2.35925,4.65576 -2.79333,6.58587 -1.59994,7.11407 2.67824,1.18539 18.61087,-0.63704 23.56594,-2.69556 z m 118.07177,-51.20617 c 20.82749,-2.96114 40.0369,-9.44816 53.93121,-18.21259 C 772.51695,317.16621 788,303.0818 788,301.05929 c 0,-0.56331 -5.55,1.92169 -12.33333,5.52222 -20.16134,10.70145 -40.96283,15.54771 -73,17.00729 l -18,0.82006 -7.50945,5.75253 c -4.13019,3.16389 -9.08019,6.46821 -11,7.34293 -1.9198,0.87472 -3.49055,2.09409 -3.49055,2.70972 0,1.5559 37.29495,1.35629 48.66666,-0.26048 z"
       id="path1" />
  </g>
</svg>
